#!OML:ASF G:\JayActor3\Patient Classification 1\Patient 1\Session 6\male.ASF
:FULLY-SPECIFIED
:DEGREES
479
root 35.5521 16.8401 -8.08781 183.261 -35.0181 -175.214
lowerback 6.68505 -1.45252 7.94827
upperback 3.61087 -1.68034 0.577832
thorax -0.188947 -0.832738 -3.74352
lowerneck -9.91258 3.12036 5.31273
upperneck 11.3899 4.20327 -6.80921
head 5.31197 1.78677 -2.68371
rclavicle -3.55762e-014 -2.15681e-014
rhumerus -32.9399 3.92155 -87.932
rradius 41.5361
rwrist -7.63691
rhand -25.4164 -11.4542
rfingers 7.12502
rthumb 1.10938 -41.4311
lclavicle -3.55762e-014 -2.15681e-014
lhumerus -29.8648 19.867 76.285
lradius 18.8103
lwrist 10.6361
lhand -27.8185 18.1331
lfingers 7.12502
lthumb -1.21066 48.1094
rfemur -3.94767 2.69833 23.7536
rtibia 11.6278
rfoot -10.8802 -13.9528
rtoes 0.427014
lfemur -21.8031 11.3905 -7.40354
ltibia 82.3203
lfoot -9.06477 -2.48451
ltoes -20.7138
480
root 35.4929 16.8362 -8.22847 182.989 -34.8986 -174.875
lowerback 6.64756 -1.31074 8.1503
upperback 3.537 -1.47901 0.680364
thorax -0.22081 -0.733587 -3.76473
lowerneck -9.85797 3.0473 5.34744
upperneck 10.9203 4.09592 -6.85791
head 5.15218 1.74263 -2.71243
rclavicle 7.62712e-014 2.43511e-015
rhumerus -32.1297 4.2872 -88.1335
rradius 42.5419
rwrist -8.02209
rhand -25.6356 -11.3987
rfingers 7.12502
rthumb 0.897688 -41.3765
lclavicle 7.62712e-014 2.43511e-015
lhumerus -31.3667 22.3171 74.5972
lradius 17.3972
lwrist 9.01914
lhand -28.0186 18.2042
lfingers 7.12502
lthumb -1.40391 48.1794
rfemur -3.04526 2.01473 24.1531
rtibia 11.0787
rfoot -10.3879 -13.2125
rtoes -0.316381
lfemur -23.7158 11.9111 -7.731
ltibia 84.1543
lfoot -9.73452 -2.06817
ltoes -20.5493
481
root 35.434 16.8301 -8.36598 182.721 -34.7731 -174.539
lowerback 6.63701 -1.16911 8.34539
upperback 3.46773 -1.2765 0.774348
thorax -0.262081 -0.634566 -3.79037
lowerneck -9.78753 2.97493 5.38659
upperneck 10.4372 3.9849 -6.87946
head 4.98524 1.69874 -2.73362
rclavicle 4.08378e-014 1.08338e-014
rhumerus -31.2959 4.53221 -88.3006
rradius 43.4854
rwrist -8.37488
rhand -25.8693 -11.3499
rfingers 7.12502
rthumb 0.671993 -41.3285
lclavicle 4.08378e-014 1.08338e-014
lhumerus -32.9845 24.3854 72.8676
lradius 16.1609
lwrist 7.37874
lhand -27.8459 18.2985
lfingers 7.12502
lthumb -1.23705 48.2747
rfemur -2.24561 1.30088 24.5252
rtibia 10.6981
rfoot -9.9377 -12.4217
rtoes -1.11091
lfemur -25.6102 12.3839 -8.12839
ltibia 85.7325
lfoot -10.3663 -1.68171
ltoes -20.3757
482
root 35.3745 16.8219 -8.50037 182.435 -34.6459 -174.208
lowerback 6.67245 -1.03261 8.54276
upperback 3.4058 -1.07735 0.860194
thorax -0.321068 -0.53828 -3.82477
lowerneck -9.68924 2.90315 5.41586
upperneck 9.93912 3.8722 -6.86911
head 4.80846 1.65577 -2.74345
rclavicle -5.85048e-014 8.94531e-016
rhumerus -30.4556 4.67187 -88.4406
rradius 44.3682
rwrist -8.68487
rhand -26.1018 -11.3017
rfingers 7.12502
rthumb 0.4474 -41.2809
lclavicle -5.85048e-014 8.94531e-016
lhumerus -34.68 26.0302 71.1672
lradius 15.0855
lwrist 5.77989
lhand -27.481 18.2584
lfingers 7.12502
lthumb -0.884612 48.2363
rfemur -1.52641 0.555645 24.8664
rtibia 10.4939
rfoot -9.55055 -11.5788
rtoes -1.89541
lfemur -27.4547 12.7863 -8.59772
ltibia 87.0392
lfoot -10.9655 -1.32576
ltoes -20.2127
483
root 35.3127 16.8115 -8.63206 182.118 -34.562 -173.897
lowerback 6.75826 -0.920591 8.74392
upperback 3.35932 -0.907184 0.934916
thorax -0.395054 -0.457302 -3.87037
lowerneck -9.57077 2.83245 5.4354
upperneck 9.43122 3.75892 -6.82773
head 4.62497 1.61387 -2.74213
rclavicle -2.20899e-014 -4.82053e-015
rhumerus -29.6206 4.73215 -88.5664
rradius 45.2013
rwrist -8.96524
rhand -26.3645 -11.2495
rfingers 7.12502
rthumb 0.19369 -41.2292
lclavicle -2.20899e-014 -4.82053e-015
lhumerus -36.3996 27.2503 69.5646
lradius 14.1445
lwrist 4.27258
lhand -26.9712 18.057
lfingers 7.12502
lthumb -0.3923 48.0364
rfemur -0.839861 -0.164172 25.1638
rtibia 10.4481
rfoot -9.27858 -10.7659
rtoes -2.57897
lfemur -29.224 13.0457 -9.16098
ltibia 88.0576
lfoot -11.5238 -0.981133
ltoes -20.0351
